<?xml version="1.0" standalone="no"?>
<!DOCTYPE svg PUBLIC "-//W3C//DTD SVG 20010904//EN" "http://www.w3.org/TR/2001/REC-SVG-20010904/DTD/svg10.dtd">
<!-- Created using Krita: http://krita.org -->
<svg xmlns="http://www.w3.org/2000/svg" 
    xmlns:xlink="http://www.w3.org/1999/xlink"
    xmlns:krita="http://krita.org/namespaces/svg/krita"
    xmlns:sodipodi="http://sodipodi.sourceforge.net/DTD/sodipodi-0.dtd"
    width="82.6371pt"
    height="112.905pt"
    viewBox="0 0 82.6371 112.905">
<defs/>
<path id="shape0" transform="matrix(0.999999997341066 0 0 1.00000001081177 15.2613227973896 6.69788373406221)" fill="none" stroke="#000000" stroke-width="0.480448418523917" stroke-linecap="square" stroke-linejoin="bevel" d="M2.27504 84.3471C5.43446 94.9603 24.9279 96.6035 32.3031 85.1879C32.2926 76.2653 32.8377 67.5801 32.4232 57.8023C30.9949 55.0801 29.8557 52.3658 32.5433 49.7548C32.1599 39.7003 33.8276 29.7483 29.3003 19.4866C27.607 16.5199 25.8479 13.6287 23.0544 11.9195L23.2947 9.15691C26.3361 6.43182 25.3057 5.6876 24.2556 4.95299L23.7751 1.83007C22.1059 0.000642269 13.1646 -1.34727 9.12143 2.31052C9.07789 3.15131 9.0352 3.99209 8.88121 4.83288C6.79005 6.62275 6.93721 8.03957 9.60188 9.0368L9.48177 12.6402C5.47124 15.9437 4.0974 19.5987 2.39516 23.21C-1.49153 34.9081 0.575435 41.3141 0.35325 49.7548C3.30645 53.1681 1.37389 54.9529 0.473362 57.0816C-0.160381 68.7912 0.965295 74.3444 1.43426 82.3052Z"/><path id="shape1" transform="matrix(0.999999997341066 0 0 1.00000001081177 25.9892172344552 19.2795829793872)" fill="none" stroke="#000000" stroke-width="0.480448418523917" stroke-linecap="square" stroke-linejoin="bevel" d="M0 0C3.93814 1.95426 7.75798 2.14063 11.0836 0.042466"/><path id="shape2" transform="matrix(0.999999997341066 0 0 1.00000001081177 24.0570128008193 11.5932296259372)" fill="none" stroke="#000000" stroke-width="0.480448418523917" stroke-linecap="square" stroke-linejoin="bevel" d="M0 0.276029C0.84568 3.13336 12.1489 4.56364 15.4576 0"/><path id="shape3" transform="matrix(0.999999997341066 0 0 1.00000001081177 22.7830315404052 12.6336476692905)" fill="none" stroke="#000000" stroke-width="0.480448418523917" stroke-linecap="square" stroke-linejoin="bevel" d="M0 0.806855C5.46695 4.58091 13.5439 4.04652 17.5172 0"/><path id="shape4" transform="matrix(0.999999997341066 0 0 1.00000001081177 24.7731230146682 15.884826971264)" fill="none" stroke="#000000" stroke-width="0.480448418523917" stroke-linecap="square" stroke-linejoin="bevel" d="M0 0.0900841C4.97524 2.26908 9.85531 1.37288 13.6928 0"/><path id="shape5" transform="matrix(0.999999997341066 0 0 1.00000001081177 24.333041473022 9.46992726279156)" fill="none" stroke="#000000" stroke-width="0.480448418523917" stroke-linecap="square" stroke-linejoin="bevel" d="M0 1.35891C5.96581 3.3375 11.371 2.46584 14.4809 0"/><path id="shape6" transform="matrix(0.999999997341066 0 0 1.00000001081177 24.2905762634879 9.85212197384997)" fill="none" stroke="#000000" stroke-width="0.480448418523917" stroke-linecap="square" stroke-linejoin="bevel" d="M0 1.95344C7.13206 4.00165 11.4511 2.93264 14.7569 0"/><path id="shape7" transform="matrix(0.999999997341066 0 0 1.00000001081177 25.6070235784671 11.2535013925442)" fill="none" stroke="#000000" stroke-width="0.480448418523917" stroke-linecap="square" stroke-linejoin="bevel" d="M0 2.03837C5.05182 3.40426 10.6472 2.25087 13.6528 0"/><path id="shape8" transform="matrix(0.999999997341066 0 0 1.00000001081177 24.4278001986901 9.08347840015574)" fill="none" stroke="#000000" stroke-width="0.480448418523917" stroke-linecap="square" stroke-linejoin="bevel" d="M0 0.030028C2.9003 2.129 10.8624 1.88772 14.7287 0"/><path id="shape9" transform="matrix(0.999999997341066 0 0 1.00000001081177 15.7973680514695 40.0879452727743)" fill="none" stroke="#000000" stroke-width="0.480448418523917" stroke-linecap="square" stroke-linejoin="bevel" d="M0 0.042466C8.4964 5.34496 23.3248 5.69578 31.6372 0"/><path id="shape10" transform="matrix(0.999999997341066 0 0 1.00000001081177 15.6699699620641 56.4526897869139)" fill="none" stroke="#000000" stroke-width="0.480448418523917" stroke-linecap="square" stroke-linejoin="bevel" d="M0 0C5.75784 5.42111 24.6802 8.4891 31.9345 0"/><path id="shape11" transform="matrix(0.999999997341066 0 0 1.00000001081177 15.9749107148704 63.4191952712303)" fill="none" stroke="#000000" stroke-width="0.480448418523917" stroke-linecap="square" stroke-linejoin="bevel" d="M0 0C7.43009 4.07819 11.6816 2.9607 16.2752 2.40224C19.8614 0.907846 21.7244 1.43374 23.7221 1.80168C26.6125 2.95961 29.1722 2.52231 31.5294 2.50734"/><path id="shape01" transform="matrix(1.00000000158286 0 0 0.999999973131065 15.7046585461958 71.9171275808945)" fill="none" stroke="#000000" stroke-width="0.480448418523917" stroke-linecap="square" stroke-linejoin="bevel" d="M0 0C7.74383 4.14607 11.9842 3.02898 15.9483 1.89489C21.2176 0.558034 22.1512 0.985389 23.6189 1.29433C26.7285 2.69059 30.1605 2.39618 31.9847 1.29433"/><path id="shape12" transform="matrix(0.999999997341066 0 0 1.00000001081177 16.4768237561346 81.704663231555)" fill="none" stroke="#000000" stroke-width="0.480448418523917" stroke-linecap="square" stroke-linejoin="bevel" d="M0 0C6.33111 3.45073 10.8613 3.32493 14.5659 1.74111C19.83 -0.0520979 21.3054 0.635265 23.3139 1.01918C26.4737 2.14759 28.5676 1.78363 30.618 1.35891"/><path id="shape13" transform="matrix(0.999999997341066 0 0 1.00000001081177 17.1987468067474 89.9006110625907)" fill="none" stroke="#000000" stroke-width="0.480448418523917" stroke-linecap="square" stroke-linejoin="bevel" d="M0 0C4.7562 3.6024 10.3192 3.63956 14.2686 2.59043C19.4179 1.4864 20.0788 2.08245 21.8275 2.2507C25.3028 2.66893 27.9637 2.21463 29.8536 0.934253"/>
</svg>
